<svg xmlns="http://www.w3.org/2000/svg" xmlns:xlink="http://www.w3.org/1999/xlink" contentScriptType="application/ecmascript" contentStyleType="text/css" height="515px" preserveAspectRatio="none" style="width:625px;height:515px;background:#FFFFFF;" version="1.1" viewBox="0 0 625 515" width="625px" zoomAndPan="magnify"><defs><filter height="300%" id="f1eude76i576gz" width="300%" x="-1" y="-1"><feGaussianBlur result="blurOut" stdDeviation="2.0"/><feColorMatrix in="blurOut" result="blurOut2" type="matrix" values="0 0 0 0 0 0 0 0 0 0 0 0 0 0 0 0 0 0 .4 0"/><feOffset dx="4.0" dy="4.0" in="blurOut2" result="blurOut3"/><feBlend in="SourceGraphic" in2="blurOut3" mode="normal"/></filter></defs><g><!--MD5=[b6dcce5e5ef3c84b0b048d11301373dd]
class Game--><rect codeLine="1" fill="#FEFECE" filter="url(#f1eude76i576gz)" height="86.4141" id="Game" style="stroke:#A80036;stroke-width:1.5;" width="131" x="203.5" y="7"/><ellipse cx="247.3" cy="23" fill="#ADD1B2" rx="11" ry="11" style="stroke:#A80036;stroke-width:1.0;"/><path d="M249.6438,18.6719 C248.7063,18.2344 248.1125,18.0938 247.2375,18.0938 C244.6125,18.0938 242.6125,20.1719 242.6125,22.8906 L242.6125,24.0156 C242.6125,26.5938 244.7219,28.4844 247.6125,28.4844 C248.8313,28.4844 249.9875,28.1875 250.7375,27.6406 C251.3156,27.2344 251.6438,26.7813 251.6438,26.3906 C251.6438,25.9375 251.2531,25.5469 250.7844,25.5469 C250.5656,25.5469 250.3625,25.625 250.175,25.8125 C249.7219,26.2969 249.7219,26.2969 249.5344,26.3906 C249.1125,26.6563 248.425,26.7813 247.6594,26.7813 C245.6125,26.7813 244.3156,25.6875 244.3156,23.9844 L244.3156,22.8906 C244.3156,21.1094 245.5656,19.7969 247.3,19.7969 C247.8781,19.7969 248.4875,19.9531 248.9563,20.2031 C249.4406,20.4844 249.6125,20.7031 249.7063,21.1094 C249.7688,21.5156 249.8,21.6406 249.9406,21.7656 C250.0813,21.9063 250.3156,22.0156 250.5344,22.0156 C250.8,22.0156 251.0656,21.875 251.2375,21.6563 C251.3469,21.5 251.3781,21.3125 251.3781,20.8906 L251.3781,19.4688 C251.3781,19.0313 251.3625,18.9063 251.2688,18.75 C251.1125,18.4844 250.8313,18.3438 250.5344,18.3438 C250.2375,18.3438 250.0344,18.4375 249.8156,18.75 L249.6438,18.6719 Z " fill="#000000"/><text fill="#000000" font-family="sans-serif" font-size="12" lengthAdjust="spacing" textLength="35" x="267.7" y="27.1543">Game</text><line style="stroke:#A80036;stroke-width:1.5;" x1="204.5" x2="333.5" y1="39" y2="39"/><rect fill="none" height="6" style="stroke:#C82930;stroke-width:1.0;" width="6" x="211.5" y="47"/><text fill="#000000" font-family="sans-serif" font-size="11" lengthAdjust="spacing" textLength="90" x="223.5" y="53.2104">player[] players</text><line style="stroke:#A80036;stroke-width:1.5;" x1="204.5" x2="333.5" y1="59.8047" y2="59.8047"/><ellipse cx="214.5" cy="70.8047" fill="#84BE84" rx="3" ry="3" style="stroke:#038048;stroke-width:1.0;"/><text fill="#000000" font-family="sans-serif" font-size="11" lengthAdjust="spacing" textLength="26" x="223.5" y="74.0151">run()</text><rect fill="#F24D5C" height="6" style="stroke:#C82930;stroke-width:1.0;" width="6" x="211.5" y="80.6094"/><text fill="#000000" font-family="sans-serif" font-size="11" lengthAdjust="spacing" textLength="105" x="223.5" y="86.8198">turn(player, board)</text><!--MD5=[9563755d011c5cec7ec66dc53565a59e]
class Board--><rect codeLine="7" fill="#FEFECE" filter="url(#f1eude76i576gz)" height="176.0469" id="Board" style="stroke:#A80036;stroke-width:1.5;" width="220" x="7" y="153"/><ellipse cx="94.75" cy="169" fill="#ADD1B2" rx="11" ry="11" style="stroke:#A80036;stroke-width:1.0;"/><path d="M97.0938,164.6719 C96.1563,164.2344 95.5625,164.0938 94.6875,164.0938 C92.0625,164.0938 90.0625,166.1719 90.0625,168.8906 L90.0625,170.0156 C90.0625,172.5938 92.1719,174.4844 95.0625,174.4844 C96.2813,174.4844 97.4375,174.1875 98.1875,173.6406 C98.7656,173.2344 99.0938,172.7813 99.0938,172.3906 C99.0938,171.9375 98.7031,171.5469 98.2344,171.5469 C98.0156,171.5469 97.8125,171.625 97.625,171.8125 C97.1719,172.2969 97.1719,172.2969 96.9844,172.3906 C96.5625,172.6563 95.875,172.7813 95.1094,172.7813 C93.0625,172.7813 91.7656,171.6875 91.7656,169.9844 L91.7656,168.8906 C91.7656,167.1094 93.0156,165.7969 94.75,165.7969 C95.3281,165.7969 95.9375,165.9531 96.4063,166.2031 C96.8906,166.4844 97.0625,166.7031 97.1563,167.1094 C97.2188,167.5156 97.25,167.6406 97.3906,167.7656 C97.5313,167.9063 97.7656,168.0156 97.9844,168.0156 C98.25,168.0156 98.5156,167.875 98.6875,167.6563 C98.7969,167.5 98.8281,167.3125 98.8281,166.8906 L98.8281,165.4688 C98.8281,165.0313 98.8125,164.9063 98.7188,164.75 C98.5625,164.4844 98.2813,164.3438 97.9844,164.3438 C97.6875,164.3438 97.4844,164.4375 97.2656,164.75 L97.0938,164.6719 Z " fill="#000000"/><text fill="#000000" font-family="sans-serif" font-size="12" lengthAdjust="spacing" textLength="36" x="115.25" y="173.1543">Board</text><line style="stroke:#A80036;stroke-width:1.5;" x1="8" x2="226" y1="185" y2="185"/><ellipse cx="18" cy="196" rx="3" ry="3" style="stroke:#038048;stroke-width:1.0;fill:none;"/><text fill="#000000" font-family="sans-serif" font-size="11" lengthAdjust="spacing" textLength="112" x="27" y="199.2104">POSSIBLE_ACTIONS</text><ellipse cx="18" cy="208.8047" rx="3" ry="3" style="stroke:#038048;stroke-width:1.0;fill:none;"/><text fill="#000000" font-family="sans-serif" font-size="11" lengthAdjust="spacing" textLength="37" x="27" y="212.0151">SHAPE</text><rect fill="none" height="6" style="stroke:#C82930;stroke-width:1.0;" width="6" x="15" y="218.6094"/><text fill="#000000" font-family="sans-serif" font-size="11" lengthAdjust="spacing" textLength="25" x="27" y="224.8198">field</text><line style="stroke:#A80036;stroke-width:1.5;" x1="8" x2="226" y1="231.4141" y2="231.4141"/><ellipse cx="18" cy="242.4141" fill="#84BE84" rx="3" ry="3" style="stroke:#038048;stroke-width:1.0;"/><text fill="#000000" font-family="sans-serif" font-size="11" lengthAdjust="spacing" textLength="125" x="27" y="245.6245">update(action, player)</text><ellipse cx="18" cy="255.2188" fill="#84BE84" rx="3" ry="3" style="stroke:#038048;stroke-width:1.0;"/><text fill="#000000" font-family="sans-serif" font-size="11" lengthAdjust="spacing" textLength="131" x="27" y="258.4292">get_equivalent_fields()</text><ellipse cx="18" cy="268.0234" fill="#84BE84" rx="3" ry="3" style="stroke:#038048;stroke-width:1.0;"/><text fill="#000000" font-family="sans-serif" font-size="11" lengthAdjust="spacing" textLength="91" x="27" y="271.2339">get_field_copy()</text><ellipse cx="18" cy="280.8281" fill="#84BE84" rx="3" ry="3" style="stroke:#038048;stroke-width:1.0;"/><text fill="#000000" font-family="sans-serif" font-size="11" lengthAdjust="spacing" textLength="99" x="27" y="284.0386">get_default_dict()</text><rect fill="#F24D5C" height="6" style="stroke:#C82930;stroke-width:1.0;" width="6" x="15" y="290.6328"/><text fill="#000000" font-family="sans-serif" font-size="11" lengthAdjust="spacing" textLength="194" x="27" y="296.8433">__markPlayer(column, row, player)</text><rect fill="#F24D5C" height="6" style="stroke:#C82930;stroke-width:1.0;" width="6" x="15" y="303.4375"/><text fill="#000000" font-family="sans-serif" font-size="11" lengthAdjust="spacing" textLength="46" x="27" y="309.6479">__over()</text><rect fill="#F24D5C" height="6" style="stroke:#C82930;stroke-width:1.0;" width="6" x="15" y="316.2422"/><text fill="#000000" font-family="sans-serif" font-size="11" lengthAdjust="spacing" textLength="115" x="27" y="322.4526">__no_more_moves()</text><!--MD5=[2cb47ba637a0d19583e6199456f6ad0b]
class Player--><rect codeLine="20" fill="#FEFECE" filter="url(#f1eude76i576gz)" height="73.6094" id="Player" style="stroke:#A80036;stroke-width:1.5;" width="129" x="343.5" y="204"/><ellipse cx="385.95" cy="220" fill="#ADD1B2" rx="11" ry="11" style="stroke:#A80036;stroke-width:1.0;"/><path d="M388.2938,215.6719 C387.3563,215.2344 386.7625,215.0938 385.8875,215.0938 C383.2625,215.0938 381.2625,217.1719 381.2625,219.8906 L381.2625,221.0156 C381.2625,223.5938 383.3719,225.4844 386.2625,225.4844 C387.4813,225.4844 388.6375,225.1875 389.3875,224.6406 C389.9656,224.2344 390.2938,223.7813 390.2938,223.3906 C390.2938,222.9375 389.9031,222.5469 389.4344,222.5469 C389.2156,222.5469 389.0125,222.625 388.825,222.8125 C388.3719,223.2969 388.3719,223.2969 388.1844,223.3906 C387.7625,223.6563 387.075,223.7813 386.3094,223.7813 C384.2625,223.7813 382.9656,222.6875 382.9656,220.9844 L382.9656,219.8906 C382.9656,218.1094 384.2156,216.7969 385.95,216.7969 C386.5281,216.7969 387.1375,216.9531 387.6063,217.2031 C388.0906,217.4844 388.2625,217.7031 388.3563,218.1094 C388.4188,218.5156 388.45,218.6406 388.5906,218.7656 C388.7313,218.9063 388.9656,219.0156 389.1844,219.0156 C389.45,219.0156 389.7156,218.875 389.8875,218.6563 C389.9969,218.5 390.0281,218.3125 390.0281,217.8906 L390.0281,216.4688 C390.0281,216.0313 390.0125,215.9063 389.9188,215.75 C389.7625,215.4844 389.4813,215.3438 389.1844,215.3438 C388.8875,215.3438 388.6844,215.4375 388.4656,215.75 L388.2938,215.6719 Z " fill="#000000"/><text fill="#000000" font-family="sans-serif" font-size="12" lengthAdjust="spacing" textLength="36" x="406.05" y="224.1543">Player</text><line style="stroke:#A80036;stroke-width:1.5;" x1="344.5" x2="471.5" y1="236" y2="236"/><line style="stroke:#A80036;stroke-width:1.5;" x1="344.5" x2="471.5" y1="244" y2="244"/><ellipse cx="354.5" cy="255" fill="#84BE84" rx="3" ry="3" style="stroke:#038048;stroke-width:1.0;"/><text fill="#000000" font-family="sans-serif" font-size="11" lengthAdjust="spacing" textLength="103" x="363.5" y="258.2104">makeMove(board)</text><ellipse cx="354.5" cy="267.8047" fill="#84BE84" rx="3" ry="3" style="stroke:#038048;stroke-width:1.0;"/><text fill="#000000" font-family="sans-serif" font-size="11" lengthAdjust="spacing" textLength="100" x="363.5" y="271.0151">giveResult(result)</text><!--MD5=[cc7b86182a2d491cea4d0231be410c3d]
class Stats--><rect codeLine="25" fill="#FEFECE" filter="url(#f1eude76i576gz)" height="73.6094" id="Stats" style="stroke:#A80036;stroke-width:1.5;" width="118" x="370" y="13"/><ellipse cx="410.2" cy="29" fill="#ADD1B2" rx="11" ry="11" style="stroke:#A80036;stroke-width:1.0;"/><path d="M412.5438,24.6719 C411.6063,24.2344 411.0125,24.0938 410.1375,24.0938 C407.5125,24.0938 405.5125,26.1719 405.5125,28.8906 L405.5125,30.0156 C405.5125,32.5938 407.6219,34.4844 410.5125,34.4844 C411.7313,34.4844 412.8875,34.1875 413.6375,33.6406 C414.2156,33.2344 414.5438,32.7813 414.5438,32.3906 C414.5438,31.9375 414.1531,31.5469 413.6844,31.5469 C413.4656,31.5469 413.2625,31.625 413.075,31.8125 C412.6219,32.2969 412.6219,32.2969 412.4344,32.3906 C412.0125,32.6563 411.325,32.7813 410.5594,32.7813 C408.5125,32.7813 407.2156,31.6875 407.2156,29.9844 L407.2156,28.8906 C407.2156,27.1094 408.4656,25.7969 410.2,25.7969 C410.7781,25.7969 411.3875,25.9531 411.8563,26.2031 C412.3406,26.4844 412.5125,26.7031 412.6063,27.1094 C412.6688,27.5156 412.7,27.6406 412.8406,27.7656 C412.9813,27.9063 413.2156,28.0156 413.4344,28.0156 C413.7,28.0156 413.9656,27.875 414.1375,27.6563 C414.2469,27.5 414.2781,27.3125 414.2781,26.8906 L414.2781,25.4688 C414.2781,25.0313 414.2625,24.9063 414.1688,24.75 C414.0125,24.4844 413.7313,24.3438 413.4344,24.3438 C413.1375,24.3438 412.9344,24.4375 412.7156,24.75 L412.5438,24.6719 Z " fill="#000000"/><text fill="#000000" font-family="sans-serif" font-size="12" lengthAdjust="spacing" textLength="30" x="429.8" y="33.1543">Stats</text><line style="stroke:#A80036;stroke-width:1.5;" x1="371" x2="487" y1="45" y2="45"/><line style="stroke:#A80036;stroke-width:1.5;" x1="371" x2="487" y1="53" y2="53"/><ellipse cx="381" cy="64" fill="#84BE84" rx="3" ry="3" style="stroke:#038048;stroke-width:1.0;"/><text fill="#000000" font-family="sans-serif" font-size="11" lengthAdjust="spacing" textLength="48" x="390" y="67.2104">display()</text><ellipse cx="381" cy="76.8047" fill="#84BE84" rx="3" ry="3" style="stroke:#038048;stroke-width:1.0;"/><text fill="#000000" font-family="sans-serif" font-size="11" lengthAdjust="spacing" textLength="92" x="390" y="80.0151">display_history()</text><!--MD5=[c357414bd7c790e94f7c0d9fe2ac6b18]
class Randy--><rect codeLine="30" fill="#FEFECE" filter="url(#f1eude76i576gz)" height="48" id="Randy" style="stroke:#A80036;stroke-width:1.5;" width="68" x="321" y="421"/><ellipse cx="336" cy="437" fill="#ADD1B2" rx="11" ry="11" style="stroke:#A80036;stroke-width:1.0;"/><path d="M338.3438,432.6719 C337.4063,432.2344 336.8125,432.0938 335.9375,432.0938 C333.3125,432.0938 331.3125,434.1719 331.3125,436.8906 L331.3125,438.0156 C331.3125,440.5938 333.4219,442.4844 336.3125,442.4844 C337.5313,442.4844 338.6875,442.1875 339.4375,441.6406 C340.0156,441.2344 340.3438,440.7813 340.3438,440.3906 C340.3438,439.9375 339.9531,439.5469 339.4844,439.5469 C339.2656,439.5469 339.0625,439.625 338.875,439.8125 C338.4219,440.2969 338.4219,440.2969 338.2344,440.3906 C337.8125,440.6563 337.125,440.7813 336.3594,440.7813 C334.3125,440.7813 333.0156,439.6875 333.0156,437.9844 L333.0156,436.8906 C333.0156,435.1094 334.2656,433.7969 336,433.7969 C336.5781,433.7969 337.1875,433.9531 337.6563,434.2031 C338.1406,434.4844 338.3125,434.7031 338.4063,435.1094 C338.4688,435.5156 338.5,435.6406 338.6406,435.7656 C338.7813,435.9063 339.0156,436.0156 339.2344,436.0156 C339.5,436.0156 339.7656,435.875 339.9375,435.6563 C340.0469,435.5 340.0781,435.3125 340.0781,434.8906 L340.0781,433.4688 C340.0781,433.0313 340.0625,432.9063 339.9688,432.75 C339.8125,432.4844 339.5313,432.3438 339.2344,432.3438 C338.9375,432.3438 338.7344,432.4375 338.5156,432.75 L338.3438,432.6719 Z " fill="#000000"/><text fill="#000000" font-family="sans-serif" font-size="12" lengthAdjust="spacing" textLength="36" x="350" y="441.1543">Randy</text><line style="stroke:#A80036;stroke-width:1.5;" x1="322" x2="388" y1="453" y2="453"/><line style="stroke:#A80036;stroke-width:1.5;" x1="322" x2="388" y1="461" y2="461"/><!--MD5=[2e69174041fa7eb3bebc5f460ee56291]
class Human--><rect codeLine="33" fill="#FEFECE" filter="url(#f1eude76i576gz)" height="48" id="Human" style="stroke:#A80036;stroke-width:1.5;" width="73" x="424.5" y="421"/><ellipse cx="439.5" cy="437" fill="#ADD1B2" rx="11" ry="11" style="stroke:#A80036;stroke-width:1.0;"/><path d="M441.8438,432.6719 C440.9063,432.2344 440.3125,432.0938 439.4375,432.0938 C436.8125,432.0938 434.8125,434.1719 434.8125,436.8906 L434.8125,438.0156 C434.8125,440.5938 436.9219,442.4844 439.8125,442.4844 C441.0313,442.4844 442.1875,442.1875 442.9375,441.6406 C443.5156,441.2344 443.8438,440.7813 443.8438,440.3906 C443.8438,439.9375 443.4531,439.5469 442.9844,439.5469 C442.7656,439.5469 442.5625,439.625 442.375,439.8125 C441.9219,440.2969 441.9219,440.2969 441.7344,440.3906 C441.3125,440.6563 440.625,440.7813 439.8594,440.7813 C437.8125,440.7813 436.5156,439.6875 436.5156,437.9844 L436.5156,436.8906 C436.5156,435.1094 437.7656,433.7969 439.5,433.7969 C440.0781,433.7969 440.6875,433.9531 441.1563,434.2031 C441.6406,434.4844 441.8125,434.7031 441.9063,435.1094 C441.9688,435.5156 442,435.6406 442.1406,435.7656 C442.2813,435.9063 442.5156,436.0156 442.7344,436.0156 C443,436.0156 443.2656,435.875 443.4375,435.6563 C443.5469,435.5 443.5781,435.3125 443.5781,434.8906 L443.5781,433.4688 C443.5781,433.0313 443.5625,432.9063 443.4688,432.75 C443.3125,432.4844 443.0313,432.3438 442.7344,432.3438 C442.4375,432.3438 442.2344,432.4375 442.0156,432.75 L441.8438,432.6719 Z " fill="#000000"/><text fill="#000000" font-family="sans-serif" font-size="12" lengthAdjust="spacing" textLength="41" x="453.5" y="441.1543">Human</text><line style="stroke:#A80036;stroke-width:1.5;" x1="425.5" x2="496.5" y1="453" y2="453"/><line style="stroke:#A80036;stroke-width:1.5;" x1="425.5" x2="496.5" y1="461" y2="461"/><!--MD5=[c1bbdcdf582d6c5ae1a5df1ef87ed0ca]
class QPlayer--><rect codeLine="36" fill="#FEFECE" filter="url(#f1eude76i576gz)" height="48" id="QPlayer" style="stroke:#A80036;stroke-width:1.5;" width="78" x="533" y="421"/><ellipse cx="548" cy="437" fill="#ADD1B2" rx="11" ry="11" style="stroke:#A80036;stroke-width:1.0;"/><path d="M550.3438,432.6719 C549.4063,432.2344 548.8125,432.0938 547.9375,432.0938 C545.3125,432.0938 543.3125,434.1719 543.3125,436.8906 L543.3125,438.0156 C543.3125,440.5938 545.4219,442.4844 548.3125,442.4844 C549.5313,442.4844 550.6875,442.1875 551.4375,441.6406 C552.0156,441.2344 552.3438,440.7813 552.3438,440.3906 C552.3438,439.9375 551.9531,439.5469 551.4844,439.5469 C551.2656,439.5469 551.0625,439.625 550.875,439.8125 C550.4219,440.2969 550.4219,440.2969 550.2344,440.3906 C549.8125,440.6563 549.125,440.7813 548.3594,440.7813 C546.3125,440.7813 545.0156,439.6875 545.0156,437.9844 L545.0156,436.8906 C545.0156,435.1094 546.2656,433.7969 548,433.7969 C548.5781,433.7969 549.1875,433.9531 549.6563,434.2031 C550.1406,434.4844 550.3125,434.7031 550.4063,435.1094 C550.4688,435.5156 550.5,435.6406 550.6406,435.7656 C550.7813,435.9063 551.0156,436.0156 551.2344,436.0156 C551.5,436.0156 551.7656,435.875 551.9375,435.6563 C552.0469,435.5 552.0781,435.3125 552.0781,434.8906 L552.0781,433.4688 C552.0781,433.0313 552.0625,432.9063 551.9688,432.75 C551.8125,432.4844 551.5313,432.3438 551.2344,432.3438 C550.9375,432.3438 550.7344,432.4375 550.5156,432.75 L550.3438,432.6719 Z " fill="#000000"/><text fill="#000000" font-family="sans-serif" font-size="12" lengthAdjust="spacing" textLength="46" x="562" y="441.1543">QPlayer</text><line style="stroke:#A80036;stroke-width:1.5;" x1="534" x2="610" y1="453" y2="453"/><line style="stroke:#A80036;stroke-width:1.5;" x1="534" x2="610" y1="461" y2="461"/><!--MD5=[2741598bdf59a7d7e0d5c97658fd3022]
class Result--><rect codeLine="39" fill="#FEFECE" filter="url(#f1eude76i576gz)" height="112.0234" id="Result" style="stroke:#A80036;stroke-width:1.5;" width="120" x="166" y="389"/><ellipse cx="204.4" cy="405" fill="#EB937F" rx="11" ry="11" style="stroke:#A80036;stroke-width:1.0;"/><path d="M203.1969,405.875 L204.65,405.875 L204.65,405.9844 C204.65,406.3906 204.6813,406.5469 204.7594,406.7031 C204.9156,406.9531 205.1969,407.1094 205.4938,407.1094 C205.7438,407.1094 206.0094,406.9688 206.1656,406.75 C206.2906,406.5938 206.3219,406.4375 206.3219,405.9844 L206.3219,404.0625 C206.3219,403.9063 206.3219,403.8594 206.3063,403.7031 C206.2438,403.2344 205.9313,402.9219 205.4781,402.9219 C205.2281,402.9219 204.9625,403.0625 204.7906,403.2813 C204.6813,403.4531 204.65,403.6094 204.65,404.0625 L204.65,404.1875 L203.1969,404.1875 L203.1969,401.7813 L207.1813,401.7813 L207.1813,402.6406 C207.1813,403.0469 207.2125,403.2188 207.2906,403.375 C207.4625,403.625 207.7438,403.7813 208.025,403.7813 C208.2906,403.7813 208.5563,403.6406 208.7281,403.4219 C208.8375,403.25 208.8688,403.1094 208.8688,402.6406 L208.8688,400.0938 L201.2438,400.0938 C200.8063,400.0938 200.6813,400.1094 200.525,400.2031 C200.275,400.3594 200.1188,400.6563 200.1188,400.9375 C200.1188,401.2188 200.2594,401.4688 200.4781,401.6406 C200.6344,401.75 200.8219,401.7813 201.2438,401.7813 L201.4938,401.7813 L201.4938,408.2969 L201.2438,408.2969 C200.8375,408.2969 200.6813,408.3125 200.525,408.4219 C200.275,408.5938 200.1188,408.8594 200.1188,409.1563 C200.1188,409.4219 200.2594,409.6719 200.4781,409.8281 C200.6188,409.9531 200.8531,410 201.2438,410 L209.2438,410 L209.2438,407.4219 C209.2438,406.9844 209.2125,406.8438 209.1344,406.6875 C208.9625,406.4375 208.6813,406.2813 208.4,406.2813 C208.1344,406.2813 207.8688,406.3906 207.6969,406.6406 C207.5875,406.7969 207.5563,406.9375 207.5563,407.4219 L207.5563,408.2969 L203.1969,408.2969 L203.1969,405.875 Z " fill="#000000"/><text fill="#000000" font-family="sans-serif" font-size="12" lengthAdjust="spacing" textLength="36" x="223.6" y="409.1543">Result</text><line style="stroke:#A80036;stroke-width:1.5;" x1="167" x2="285" y1="421" y2="421"/><text fill="#000000" font-family="sans-serif" font-size="11" lengthAdjust="spacing" textLength="90" x="172" y="435.2104">NO_RESULT = 0</text><text fill="#000000" font-family="sans-serif" font-size="11" lengthAdjust="spacing" textLength="91" x="172" y="448.0151">GAME_WON = 1</text><text fill="#000000" font-family="sans-serif" font-size="11" lengthAdjust="spacing" textLength="93" x="172" y="460.8198">GAME_LOST = 2</text><text fill="#000000" font-family="sans-serif" font-size="11" lengthAdjust="spacing" textLength="98" x="172" y="473.6245">GAME_DRAW = 3</text><text fill="#000000" font-family="sans-serif" font-size="11" lengthAdjust="spacing" textLength="108" x="172" y="486.4292">INVALID_MOVE = 4</text><line style="stroke:#A80036;stroke-width:1.5;" x1="167" x2="285" y1="493.0234" y2="493.0234"/><!--MD5=[6b6b9e8ceff4e9e58f06e15491e15318]
link Game to Player--><path codeLine="47" d="M300.194,93.415 C324.607,126.61 358.191,172.274 381.356,203.771 " fill="none" id="Game-Player" style="stroke:#A80036;stroke-width:1.0;"/><!--MD5=[15c8f9ca3aac13d865864b4eb5314ef1]
link Game to Board--><path codeLine="48" d="M234.888,93.415 C220.709,111.047 203.7,132.196 187.072,152.871 " fill="none" id="Game-Board" style="stroke:#A80036;stroke-width:1.0;"/><!--MD5=[0fc51ad3fdfcf6453b1e0f8b19e98430]
link Game to Result--><path codeLine="49" d="M266.085,93.008 C262.103,147.524 254.271,245.554 244,329 C241.593,348.556 238.408,369.896 235.388,388.826 " fill="none" id="Game-Result" style="stroke:#A80036;stroke-width:1.0;"/><!--MD5=[2afbd8c8378bdcba1b9981c15c47e750]
reverse link Player to Randy--><path codeLine="51" d="M393.384,297.705 C382.758,338.204 368.917,390.958 361.091,420.7849 " fill="none" id="Player-backto-Randy" style="stroke:#A80036;stroke-width:1.0;"/><polygon fill="none" points="386.678,295.682,398.525,278.114,400.22,299.235,386.678,295.682" style="stroke:#A80036;stroke-width:1.0;"/><!--MD5=[1a5e42fe08df60c271858a4aebb9d8af]
reverse link Player to Human--><path codeLine="52" d="M422.616,297.705 C433.242,338.204 447.083,390.958 454.909,420.7849 " fill="none" id="Player-backto-Human" style="stroke:#A80036;stroke-width:1.0;"/><polygon fill="none" points="415.78,299.235,417.475,278.114,429.322,295.682,415.78,299.235" style="stroke:#A80036;stroke-width:1.0;"/><!--MD5=[5a4429f42930c09b436367a93accde82]
reverse link Player to QPlayer--><path codeLine="53" d="M450.097,293.851 C483.343,334.8 528.16,390.002 553.152,420.7849 " fill="none" id="Player-backto-QPlayer" style="stroke:#A80036;stroke-width:1.0;"/><polygon fill="none" points="444.492,298.053,437.32,278.114,455.36,289.228,444.492,298.053" style="stroke:#A80036;stroke-width:1.0;"/><!--MD5=[50fa493b18ddf617f1898be6efab284a]
link Player to Result--><path codeLine="54" d="M375.462,278.114 C347.754,308.867 307.505,353.539 275.753,388.78 " fill="none" id="Player-Result" style="stroke:#A80036;stroke-width:1.0;"/><!--MD5=[d0d62090ab665714990472f22713d51f]
link Stats to Player--><path codeLine="56" d="M424.951,87.441 C421.22,121.016 415.716,170.555 412.001,203.992 " fill="none" id="Stats-Player" style="stroke:#A80036;stroke-width:1.0;"/><!--MD5=[8dd95aff79c51151a18c835e3410b3cd]
link Board to Result--><path codeLine="58" d="M164.017,329.132 C174.964,349.42 186.322,370.469 196.279,388.92 " fill="none" id="Board-Result" style="stroke:#A80036;stroke-width:1.0;"/><!--MD5=[cec9b5e791218e634ca8d4d4691d0801]
@startuml
class Game {
-player[] players
+run()
-turn(player, board)
}

class Board {
+POSSIBLE_ACTIONS
+SHAPE
-field
+update(action, player)
+get_equivalent_fields()
+get_field_copy()
+get_default_dict()
-__markPlayer(column, row, player)
-__over()
-__no_more_moves()
}

class Player {
+makeMove(board)
+giveResult(result)
}

class Stats {
+display()
+display_history()
}

class Randy {
}

class Human {
}

class QPlayer {
}

enum Result{
NO_RESULT = 0
GAME_WON = 1
GAME_LOST = 2
GAME_DRAW = 3
INVALID_MOVE = 4
}

Game - - Player
Game - - Board
Game - - Result

Player <|- - Randy
Player <|- - Human
Player <|- - QPlayer
Player - - Result

Stats - - Player

Board - - Result
@enduml

PlantUML version 1.2021.17beta4(Unknown compile time)
(GPL source distribution)
Java Runtime: Java(TM) SE Runtime Environment
JVM: Java HotSpot(TM) 64-Bit Server VM
Default Encoding: UTF-8
Language: en
Country: US
--></g></svg>